<?xml version="1.0" standalone="no"?><!DOCTYPE svg PUBLIC "-//W3C//DTD SVG 1.1//EN" "http://www.w3.org/Graphics/SVG/1.1/DTD/svg11.dtd"><svg t="1552895593063" class="icon" style="" viewBox="0 0 1205 1024" version="1.1" xmlns="http://www.w3.org/2000/svg" p-id="5971" xmlns:xlink="http://www.w3.org/1999/xlink" width="75.3125" height="64"><defs><style type="text/css"></style></defs><path d="M684.452897 209.423452l395.163252 126.661003 0 678.884362-395.163252 0 0-741.159661-144.830183 75.105713 0 115.274855-57.41345 0 0-148.170532 14.444595-8.352803 187.800969-98.243903zM306.261706 486.75349l0 528.217258 289.741461 0 0-497.760229-289.741461-92.866521-141.481145 65.427391-14.481281 8.331563 0 175.47933-63.289954 70.93607 0 279.478095 57.421174 0 0-257.933811 63.328571-70.938966 0-164.107663 98.502636-44.262517zM353.812438 504.038346c16.365778 4.299009 32.307737 8.505339 47.818154 12.575544 0 23.157498 0 46.26383 0 69.402985-15.510417-3.074859-31.453341-6.244328-47.818154-9.507443 0-24.158638 0-48.297001 0-72.472051l0 0zM521.495047 737.700566c0.036686 20.526732 0.036686 41.052499 0.036686 61.568612 11.872719 0 23.477052 0 34.84003 0 0-19.745709 0-39.521345 0-59.322083-11.361047-0.730822-22.966346-1.477091-34.877681-2.246529l0 0zM444.185283 732.704524c0 22.203665 0 44.400572 0 66.562723 13.904926 0 27.421753 0 40.555309 0 0-21.279759 0-42.616478 0-63.9503-13.132591-0.844741-26.650383-1.707826-40.555309-2.614354l0 0zM353.812438 726.871464c16.365778 1.054237 32.307737 2.093028 47.818154 3.08934 0 23.123709 0 46.225213 0 69.308374-15.510417 0-31.453341 0-47.818154 0 0-24.101678 0-48.243903 0-72.398679l0 0zM521.495047 642.990095c0 20.546041 0 41.074704 0 61.603367 11.910371 1.190361 23.513738 2.342106 34.877681 3.456199 0-19.780464 0-39.5561 0-59.339461-11.361047-1.862293-22.966346-3.762237-34.877681-5.722037l0 0zM444.185283 630.314147c0 22.203665 0 44.399606 0 66.619683 13.904926 1.379583 27.421753 2.721515 40.555309 4.031588 0-21.336719 0-42.66861 0-63.98409-13.132591-2.172192-26.650383-4.38107-40.555309-6.667182l0 0zM353.812438 615.514279c16.365778 2.687726 32.307737 5.296287 47.818154 7.82858 0 23.119847 0 46.246452 0 69.366299-15.510417-1.539843-31.453341-3.130853-47.818154-4.743102 0-24.158638 0-48.321137 0-72.451777l0 0zM521.495047 548.186944c0 20.564384 0 41.114286 0 61.640053 11.910371 2.360449 23.513738 4.665869 34.877681 6.914329 0-19.777568 0-39.578305 0-59.375181-11.361047-2.979282-22.966346-6.051244-34.877681-9.179201l0 0zM444.185283 527.832056c0 22.216215 0 44.43243 0 66.633199 13.904926 2.764959 27.421753 5.455581 40.555309 8.064142 0-21.331892 0-42.648337 0-64.021741-13.132591-3.455234-26.650383-7.010871-40.555309-10.6756l0 0zM749.282694 318.11222c0 32.971945 0 65.908169 0 98.855979 22.311792 4.416791 44.056882 8.76214 65.215964 12.945299 0-31.533471 0-63.06308 0-94.632272-21.160047-5.568535-42.902242-11.294433-65.215964-17.167075l0 0zM977.994246 636.81045c0.039582 27.999073 0.039582 56.017455 0.039582 83.951845 16.202622 0 32.029696 0 47.50922 0 0-26.920701 0-53.918635 0-80.901122-15.479523-0.997278-31.305632-2.015794-47.549767-3.049758l0 0zM872.524184 629.992663c0 30.284219 0 60.564577 0 90.770597 18.973374 0 37.409009 0 55.343593 0 0-29.012763 0-58.108552 0-87.198548-17.972235-1.172984-36.370219-2.343071-55.343593-3.572049l0 0zM749.282694 622.022166c0 32.952637 0 65.88693 0 98.740129 22.311792 0 44.056882 0 65.215964 0 0-31.452376 0-62.982951 0-94.514491-21.160047-1.364137-42.902242-2.767855-65.215964-4.224672l0 0zM977.994246 507.626808c0 28.018382 0 56.016489 0 84.033906 16.24317 1.613215 32.069278 3.189743 47.548802 4.705451 0-26.960283 0-53.962078 0-80.961943-15.479523-2.514916-31.345214-5.108996-47.549767-7.779344l0 0zM872.524184 490.345813c0 30.284219 0 60.568439 0 90.850727 18.973374 1.880636 37.370393 3.705277 55.343593 5.489371 0-29.089031 0-58.18482 0-87.273851-17.972235-2.920392-36.370219-5.956633-55.343593-9.065282l0 0zM749.282694 470.146357c0 32.929467 0 65.883068 0 98.816397 22.311792 2.207913 44.056882 4.377208 65.215964 6.468305 0-31.528644 0-63.062115 0-94.591724-21.160047-3.479369-42.902242-7.027283-65.215964-10.693943l0 0zM977.994246 378.334073c0 28.036725 0 56.054141 0 84.072522 16.203587 3.222568 32.028731 6.354386 47.548802 9.427314 0-26.983453 0-53.980421 0-80.978355-15.519106-4.075032-31.345214-8.261088-47.549767-12.521481l0 0zM872.524184 350.566701c0 30.321871 0 60.60609 0 90.888378 18.973374 3.762237 37.370393 7.433724 55.343593 10.983569 0-29.089031 0-58.166477 0-87.29509-17.972235-4.724759-36.370219-9.583711-55.343593-14.575892z" p-id="5972" fill="#545c64"></path></svg>